<svg width="24" height="24" viewBox="0 0 24 24" fill="none" xmlns="http://www.w3.org/2000/svg">
<g clip-path="url(#clip0_1331_2903)">
<g clip-path="url(#clip1_1331_2903)">
<mask id="mask0_1331_2903" style="mask-type:luminance" maskUnits="userSpaceOnUse" x="0" y="0" width="24" height="24">
<path d="M24 0H0V24H24V0Z" fill="white"/>
</mask>
<g mask="url(#mask0_1331_2903)">
<path d="M13.6796 8.31957C14.6096 9.24957 14.6096 10.7495 13.6796 11.6795C12.7496 12.6095 11.2496 12.6095 10.3196 11.6795C9.38956 10.7495 9.38956 9.24957 10.3196 8.31957C11.2496 7.38957 12.7596 7.38957 13.6796 8.31957Z" fill="#FCFCFC"/>
<g opacity="0.4">
<path d="M19.7797 9.69982C19.7797 11.8098 18.8397 13.8198 17.2197 15.1698L14.6697 17.2998C13.6497 18.1498 12.8897 19.2598 12.4697 20.5198L11.9997 21.9298L11.5297 20.5198C11.1097 19.2598 10.3497 18.1498 9.32973 17.2998L6.77973 15.1698C5.15973 13.8198 4.21973 11.8098 4.21973 9.69982V9.73982C4.21973 4.87982 8.23973 2.06982 11.9997 2.06982C15.7597 2.06982 19.7797 4.88982 19.7797 9.73982" fill="#FCFCFC"/>
</g>
</g>
</g>
</g>
<defs>
<clipPath id="clip0_1331_2903">
<rect width="24" height="24" fill="white"/>
</clipPath>
<clipPath id="clip1_1331_2903">
<rect width="24" height="24" fill="white"/>
</clipPath>
</defs>
</svg>
